<?xml version="1.0" encoding="utf-8"?>
<!-- Generator: Adobe Illustrator 19.1.0, SVG Export Plug-In . SVG Version: 6.00 Build 0)  -->
<svg version="1.1" id="Layer_1" xmlns="http://www.w3.org/2000/svg" xmlns:xlink="http://www.w3.org/1999/xlink" x="0px" y="0px"
	 viewBox="0 0 32 32" style="enable-background:new 0 0 32 32;" xml:space="preserve">
<g>
	<path d="M16,12c-3.3,0-6,2.7-6,6s2.7,6,6,6s6-2.7,6-6S19.3,12,16,12z"/>
	<path d="M30,6h-5l-1-2c0,0-0.9-2-2-2H10C8.9,2,8,4,8,4L7,6H2C0.9,6,0,6.9,0,8v20c0,1.1,0.9,2,2,2h28c1.1,0,2-0.9,2-2V8
		C32,6.9,31.1,6,30,6z M16,26c-4.4,0-8-3.6-8-8s3.6-8,8-8s8,3.6,8,8S20.4,26,16,26z"/>
</g>
</svg>
