<?xml version="1.0" encoding="utf-8"?>
<!-- Generator: Adobe Illustrator 19.1.0, SVG Export Plug-In . SVG Version: 6.00 Build 0)  -->
<svg version="1.1" id="Layer_1" xmlns="http://www.w3.org/2000/svg" xmlns:xlink="http://www.w3.org/1999/xlink" x="0px" y="0px"
	 viewBox="0 0 32 32" style="enable-background:new 0 0 32 32;" xml:space="preserve">
<path d="M23.8,3.8c3.4,0,6.2,2.7,6.2,6.1c0,0.1,0,0.1,0,0.2l0,0.1l0,0.1l0,0c-0.1,2.6-1.7,5.8-4.6,9c-2.7,3-7.2,6.6-9.4,8.3
	c-2.1-1.7-6.7-5.3-9.4-8.3c-2.9-3.2-4.6-6.4-4.6-9l0,0l0-0.1l0-0.1C2,10,2,10,2,9.9c0-3.4,2.8-6.1,6.2-6.1c2.7,0,5.1,1.7,5.9,4.4
	c0.7,2.7,1.3,3,1.9,3c0.6,0,1.2-0.6,1.9-3C18.6,5.6,21.1,3.8,23.8,3.8 M23.8,1.8c-3.7,0-6.8,2.4-7.8,5.8c-1-3.3-4.1-5.8-7.8-5.8
	C3.7,1.8,0,5.4,0,9.9c0,0.1,0,0.1,0,0.2c0,0,0,0.1,0,0.1c0,3.2,1.9,7,5.1,10.5C8.9,24.9,16,30.2,16,30.2s7.1-5.3,10.9-9.5
	c3.2-3.5,5.1-7.2,5.1-10.5c0,0,0-0.1,0-0.1c0-0.1,0-0.1,0-0.2C32,5.4,28.3,1.8,23.8,1.8L23.8,1.8z"/>
</svg>
