<svg id="Layer_1" data-name="Layer 1" xmlns="http://www.w3.org/2000/svg" viewBox="0 0 32 32"><title>image</title><g id="Group-2"><g id="Group"><g id="img"><path id="Fill-1" d="M29.38,14.55l-3.89-4.2a1.24,1.24,0,0,0-.87-0.23,1,1,0,0,0-.78.24l-7.32,6,1.25,1.41,8.49,9.55h-3L11.93,14.21a0.94,0.94,0,0,0-.8-0.29,1,1,0,0,0-.22,0l-0.09,0a1.05,1.05,0,0,0-.51.2L2.63,20.44V5.32a1,1,0,0,1,1-1H28.42a1,1,0,0,1,1,1v9.23Zm0-12.09H2.63A1.91,1.91,0,0,0,.72,4.36v18a0.94,0.94,0,0,0,0,.16v4.75A1.91,1.91,0,0,0,2.63,29.2H29.38a1.91,1.91,0,0,0,1.91-1.91V4.36a1.91,1.91,0,0,0-1.91-1.91h0Z"/><circle id="Oval-74" cx="9.26" cy="10.24" r="2.25"/></g></g></g></svg>